<mxfile host="app.diagrams.net" modified="2023-12-08T12:46:19.378Z" agent="Mozilla/5.0 (Windows NT 10.0; Win64; x64; rv:120.0) Gecko/20100101 Firefox/120.0" etag="jtM8pDXr-7c8HfgzppH3" version="22.1.7" type="device">
  <diagram id="C5RBs43oDa-KdzZeNtuy" name="Page-1">
    <mxGraphModel dx="2074" dy="1094" grid="1" gridSize="10" guides="1" tooltips="1" connect="1" arrows="1" fold="1" page="1" pageScale="1" pageWidth="827" pageHeight="1169" math="0" shadow="0">
      <root>
        <mxCell id="WIyWlLk6GJQsqaUBKTNV-0" />
        <mxCell id="WIyWlLk6GJQsqaUBKTNV-1" parent="WIyWlLk6GJQsqaUBKTNV-0" />
        <mxCell id="NMCbXyKGvZApDvs_OIJ3-25" value="" style="edgeStyle=orthogonalEdgeStyle;rounded=0;orthogonalLoop=1;jettySize=auto;html=1;" parent="WIyWlLk6GJQsqaUBKTNV-1" source="NMCbXyKGvZApDvs_OIJ3-26" edge="1">
          <mxGeometry relative="1" as="geometry">
            <mxPoint x="148.75" y="140" as="targetPoint" />
          </mxGeometry>
        </mxCell>
        <mxCell id="NMCbXyKGvZApDvs_OIJ3-26" value="Salary&lt;br&gt;applyPension" style="strokeWidth=2;html=1;shape=mxgraph.flowchart.start_1;whiteSpace=wrap;" parent="WIyWlLk6GJQsqaUBKTNV-1" vertex="1">
          <mxGeometry x="98.75" y="30" width="100" height="60" as="geometry" />
        </mxCell>
        <mxCell id="NMCbXyKGvZApDvs_OIJ3-27" value="" style="edgeStyle=orthogonalEdgeStyle;rounded=0;orthogonalLoop=1;jettySize=auto;html=1;" parent="WIyWlLk6GJQsqaUBKTNV-1" source="NMCbXyKGvZApDvs_OIJ3-28" target="NMCbXyKGvZApDvs_OIJ3-41" edge="1">
          <mxGeometry relative="1" as="geometry" />
        </mxCell>
        <mxCell id="NMCbXyKGvZApDvs_OIJ3-28" value="Salary&lt;br&gt;applyParking" style="strokeWidth=2;html=1;shape=mxgraph.flowchart.start_1;whiteSpace=wrap;" parent="WIyWlLk6GJQsqaUBKTNV-1" vertex="1">
          <mxGeometry x="389.37" y="35" width="150" height="60" as="geometry" />
        </mxCell>
        <mxCell id="NMCbXyKGvZApDvs_OIJ3-29" value="" style="edgeStyle=orthogonalEdgeStyle;rounded=0;orthogonalLoop=1;jettySize=auto;html=1;" parent="WIyWlLk6GJQsqaUBKTNV-1" source="NMCbXyKGvZApDvs_OIJ3-30" target="NMCbXyKGvZApDvs_OIJ3-34" edge="1">
          <mxGeometry relative="1" as="geometry" />
        </mxCell>
        <mxCell id="NMCbXyKGvZApDvs_OIJ3-30" value="Set totalPension to output of ApplyTaxBands with arguments:&lt;div&gt;yearlySalary, pensionBands&lt;br&gt;&lt;/div&gt;" style="shape=process;whiteSpace=wrap;html=1;backgroundOutline=1;strokeWidth=2;" parent="WIyWlLk6GJQsqaUBKTNV-1" vertex="1">
          <mxGeometry x="24.380000000000003" y="220" width="248.75" height="60" as="geometry" />
        </mxCell>
        <mxCell id="NMCbXyKGvZApDvs_OIJ3-31" value="" style="edgeStyle=orthogonalEdgeStyle;rounded=0;orthogonalLoop=1;jettySize=auto;html=1;" parent="WIyWlLk6GJQsqaUBKTNV-1" source="NMCbXyKGvZApDvs_OIJ3-32" target="NMCbXyKGvZApDvs_OIJ3-30" edge="1">
          <mxGeometry relative="1" as="geometry" />
        </mxCell>
        <mxCell id="NMCbXyKGvZApDvs_OIJ3-32" value="Set pensionBands = rateIO.pension" style="whiteSpace=wrap;html=1;strokeWidth=2;rounded=1;arcSize=12;" parent="WIyWlLk6GJQsqaUBKTNV-1" vertex="1">
          <mxGeometry x="48.75" y="130" width="200" height="50" as="geometry" />
        </mxCell>
        <mxCell id="NMCbXyKGvZApDvs_OIJ3-33" value="" style="edgeStyle=orthogonalEdgeStyle;rounded=0;orthogonalLoop=1;jettySize=auto;html=1;" parent="WIyWlLk6GJQsqaUBKTNV-1" source="NMCbXyKGvZApDvs_OIJ3-34" target="NMCbXyKGvZApDvs_OIJ3-36" edge="1">
          <mxGeometry relative="1" as="geometry" />
        </mxCell>
        <mxCell id="NMCbXyKGvZApDvs_OIJ3-34" value="Set totalDeductions = totalDeductions - totalPension" style="whiteSpace=wrap;html=1;strokeWidth=2;rounded=1;arcSize=12;" parent="WIyWlLk6GJQsqaUBKTNV-1" vertex="1">
          <mxGeometry x="13.76" y="320" width="270" height="50" as="geometry" />
        </mxCell>
        <mxCell id="NMCbXyKGvZApDvs_OIJ3-35" value="" style="edgeStyle=orthogonalEdgeStyle;rounded=0;orthogonalLoop=1;jettySize=auto;html=1;" parent="WIyWlLk6GJQsqaUBKTNV-1" source="NMCbXyKGvZApDvs_OIJ3-36" target="NMCbXyKGvZApDvs_OIJ3-37" edge="1">
          <mxGeometry relative="1" as="geometry" />
        </mxCell>
        <mxCell id="NMCbXyKGvZApDvs_OIJ3-36" value="Set netSalary = netSalary - totalPension" style="whiteSpace=wrap;html=1;strokeWidth=2;rounded=1;arcSize=12;" parent="WIyWlLk6GJQsqaUBKTNV-1" vertex="1">
          <mxGeometry x="38.13" y="410" width="221.25" height="60" as="geometry" />
        </mxCell>
        <mxCell id="NMCbXyKGvZApDvs_OIJ3-37" value="Stop" style="strokeWidth=2;html=1;shape=mxgraph.flowchart.terminator;whiteSpace=wrap;" parent="WIyWlLk6GJQsqaUBKTNV-1" vertex="1">
          <mxGeometry x="98.75" y="510" width="100" height="60" as="geometry" />
        </mxCell>
        <mxCell id="NMCbXyKGvZApDvs_OIJ3-40" value="" style="edgeStyle=orthogonalEdgeStyle;rounded=0;orthogonalLoop=1;jettySize=auto;html=1;" parent="WIyWlLk6GJQsqaUBKTNV-1" source="NMCbXyKGvZApDvs_OIJ3-41" edge="1">
          <mxGeometry relative="1" as="geometry">
            <mxPoint x="464.3699999999999" y="220" as="targetPoint" />
          </mxGeometry>
        </mxCell>
        <mxCell id="NMCbXyKGvZApDvs_OIJ3-41" value="Set totalParking&amp;nbsp; = rateIO.monthlyParking * 12" style="whiteSpace=wrap;html=1;strokeWidth=2;rounded=1;arcSize=12;" parent="WIyWlLk6GJQsqaUBKTNV-1" vertex="1">
          <mxGeometry x="364.37" y="130" width="200" height="50" as="geometry" />
        </mxCell>
        <mxCell id="NMCbXyKGvZApDvs_OIJ3-42" value="" style="edgeStyle=orthogonalEdgeStyle;rounded=0;orthogonalLoop=1;jettySize=auto;html=1;" parent="WIyWlLk6GJQsqaUBKTNV-1" source="NMCbXyKGvZApDvs_OIJ3-43" target="NMCbXyKGvZApDvs_OIJ3-45" edge="1">
          <mxGeometry relative="1" as="geometry" />
        </mxCell>
        <mxCell id="NMCbXyKGvZApDvs_OIJ3-43" value="Set totalDeductions = totalDeductions - totalParking" style="whiteSpace=wrap;html=1;strokeWidth=2;rounded=1;arcSize=12;" parent="WIyWlLk6GJQsqaUBKTNV-1" vertex="1">
          <mxGeometry x="364.37" y="220" width="200" height="50" as="geometry" />
        </mxCell>
        <mxCell id="NMCbXyKGvZApDvs_OIJ3-44" value="" style="edgeStyle=orthogonalEdgeStyle;rounded=0;orthogonalLoop=1;jettySize=auto;html=1;" parent="WIyWlLk6GJQsqaUBKTNV-1" source="NMCbXyKGvZApDvs_OIJ3-45" target="NMCbXyKGvZApDvs_OIJ3-46" edge="1">
          <mxGeometry relative="1" as="geometry" />
        </mxCell>
        <mxCell id="NMCbXyKGvZApDvs_OIJ3-45" value="Set netSalary = netSalary - totalParking" style="whiteSpace=wrap;html=1;strokeWidth=2;rounded=1;arcSize=12;" parent="WIyWlLk6GJQsqaUBKTNV-1" vertex="1">
          <mxGeometry x="351.55" y="320" width="225.63" height="50" as="geometry" />
        </mxCell>
        <mxCell id="NMCbXyKGvZApDvs_OIJ3-46" value="Stop" style="strokeWidth=2;html=1;shape=mxgraph.flowchart.terminator;whiteSpace=wrap;" parent="WIyWlLk6GJQsqaUBKTNV-1" vertex="1">
          <mxGeometry x="414.37" y="510" width="100" height="60" as="geometry" />
        </mxCell>
      </root>
    </mxGraphModel>
  </diagram>
</mxfile>
